# xmcd
#
# Track frame offsets:
#   150
#   16771
#   29521
#   43136
#   58838
#   73127
#   88262
#   103445
#   116061
#   131007
#   145705
#   158173
#   169475
#   184779
#   196090
#   210825
#   227344
#   239323
#   254052
#   267993
#   281683
#   297676
#
# Disc length: 4174 seconds
#
# Revision: 0
# Processed by: cddbd v1.5.1PL0 Copyright (c) Steve Scherf et al.
# Submitted via: Media_Universe 3.0
#
DISCID=57104c16
DTITLE=Tracy Byrd - Big Love and Tracy Byrd
DYEAR=1900
DGENRE=Country
TTITLE0=Big Love
TTITLE1=Cowgirl
TTITLE2=Good Ol Fashioned Love
TTITLE3=Dont Take Her (Shes All I Got)
TTITLE4=If I Stay
TTITLE5=Dont Love Make A Diamond Shine
TTITLE6=Tucson Too Soon
TTITLE7=I Dont Believe Thats How You Feel
TTITLE8=Driving Me Out Of Your Mind
TTITLE9=I Love You, Thats All
TTITLE10=Thats The Thing About A Memory
TTITLE11=Back In The Swing Of Things
TTITLE12=Someone To Give My Love To
TTITLE13=Holdin Heaven
TTITLE14=Why
TTITLE15=Out Of Control Raging Fire
TTITLE16=Hat Trick
TTITLE17=Why Dont That Telephone Ring
TTITLE18=Edge Of A Memory
TTITLE19=Talk To Me Texas
TTITLE20=Dreaming About Babies
TTITLE21=If Mama Aint Happy
EXTD=
EXTT0=
EXTT1=
EXTT2=
EXTT3=
EXTT4=
EXTT5=
EXTT6=
EXTT7=
EXTT8=
EXTT9=
EXTT10=
EXTT11=
EXTT12=
EXTT13=
EXTT14=
EXTT15=
EXTT16=
EXTT17=
EXTT18=
EXTT19=
EXTT20=
EXTT21=
PLAYORDER=
